PathFileType	4	(X/Y/Z)	C:/Users/beibeiliu/ov580/test_trc/User1\sequence.23_training_dense_right.trc
DataRate	CameraRate	NumFrames	NumMarkers	Units	OrigDataRate	OrigDataStartFrame	OrigNumFrames
120	120	22	19	mm	120	1	240
Frame#	Time	ThumbCMC			ThumbMCP			ThumbIP			ThumbTip			IndexMCP			IndexPIP			IndexTip			MiddleMCP			MiddlePIP			MiddleTip			RingMCP			RingPIP			RingTip			PinkyMCP			PinkyPIP			PinkyTip			BackHand1			BackHand2			BackHand3	
		X0	Y0	Z0	X1	Y1	Z1	X2	Y2	Z2	X3	Y3	Z3	X4	Y4	Z4	X5	Y5	Z5	X6	Y6	Z6	X7	Y7	Z7	X8	Y8	Z8	X9	Y9	Z9	X10	Y10	Z10	X11	Y11	Z11	X12	Y12	Z12	X13	Y13	Z13	X14	Y14	Z14	X15	Y15	Z15	X16	Y16	Z16	X17	Y17	Z17	X18	Y18	Z18	
0	0	115.052	17.4175	67.3285	87.3097	0.143554	60.1003	68.4176	-12.9498	44.6577	51.4397	-21.9493	38.065	127.197	7.14793	-16.0656	126.568	3.1506	-44.9704	125.338	1.98288	-66.23	158.469	10.7188	-24.4436	156.457	6.54652	-52.5486	163.263	0.867521	-82.2455	179.933	6.55086	-16.7766	184.449	4.51773	-44.7429	191.534	-0.500554	-70.0886	205.054	-5.49562	5.39733	218.48	-8.47101	-7.56626	231.637	-3.09533	-21.3612	176.314	23.0923	31.8216	176.887	40.0666	62.8768	142.57	33.4873	46.8881	
1	0.00833333	112.163	15.637	62.7051	91.6531	-0.838135	59.6328	69.4638	-13.8694	42.6093	50.2542	-21.0467	41.8179	127.146	6.07533	-16.3707	124.318	4.40221	-44.6369	129.122	1.89426	-70.0788	154.668	9.64785	-24.0694	155.957	5.4057	-56.8003	162.675	1.12674	-84.3616	177.743	5.90152	-19.5254	188.41	3.73547	-41.484	190.056	-1.37852	-69.9808	204.027	-6.57434	5.73808	219.451	-9.4038	-8.54743	231.037	-4.99453	-27.0472	175.999	21.8337	31.7835	177.236	38.2022	62.4289	141.856	33.073	43.2331	
2	0.0166667	111.898	16.3836	68.1665	91.5118	-3.2598	57.7007	68.7603	-14.2405	44.3238	52.1381	-22.5114	39.1075	127.53	5.43306	-16.3305	123.653	3.61188	-40.5734	129.779	0.944337	-66.606	154.949	8.40693	-28.8417	155.485	4.59741	-55.93	163.014	0.00716501	-85.2329	180.417	5.19274	-17.4717	184.246	2.78582	-41.6405	190.61	-3.27139	-68.3528	204.805	-6.4489	4.44576	217.911	-11.0641	-6.11473	228.952	-5.8194	-23.2052	176.79	21.0153	30.9039	180.122	37.4651	59.6943	143.872	33.0917	44.7796	
3	0.025	110.439	14.944	65.5958	90.1592	-2.5329	60.9802	68.9879	-15.6505	43.2591	49.8815	-24.1428	40.2501	125.226	5.26008	-14.446	123.787	2.51317	-44.7963	130.835	0.176934	-68.1553	158.657	8.44128	-26.3544	159.468	3.86726	-56.6416	165.186	-1.64048	-83.1538	178.733	5.72645	-19.388	185.771	2.72694	-45.6126	189.062	-4.19882	-69.1721	204.143	-6.57848	5.47724	215.666	-11.222	-5.25903	232.418	-5.71522	-25.2309	173.811	22.4878	30.2884	178.66	36.1549	62.8966	139.896	30.6981	41.9154	
4	0.0333333	109.191	14.3706	64.5935	90.9076	-4.11497	60.0747	69.4629	-16.6075	45.1064	50.7885	-27.0863	39.5114	127.032	4.57063	-17.9789	123.748	2.39487	-41.2801	131.267	-1.36784	-66.9742	153.842	8.20513	-23.0626	157.43	2.5945	-56.2832	161.996	-1.63606	-81.4596	177.78	4.2113	-14.1839	182.846	1.7215	-46.1707	189.205	-3.61892	-70.4818	204.437	-7.07069	8.85688	218.696	-10.8972	-8.71735	232.742	-7.03399	-25.2787	174.56	22.0155	33.9325	181.355	37.4806	62.4228	145.351	31.1399	45.7045	
5	0.0416667	109.925	12.2092	63.8322	92.7755	-6.48202	59.3431	73.3388	-18.5104	48.7393	54.0319	-29.3038	42.0156	124.18	3.07235	-16.4219	128.051	0.629765	-43.8255	125.247	-1.39687	-69.9839	156.463	7.54104	-23.2461	159.652	3.25153	-52.8479	161.358	-2.53467	-80.0026	177.28	4.15382	-17.9805	185.791	2.34574	-42.908	186.93	-4.92613	-66.8301	207.607	-7.68474	6.2911	215.737	-10.6896	-6.84384	234.843	-4.95376	-25.1479	178.86	20.0194	31.3876	178.553	34.9851	60.1458	144.855	29.1325	42.0022	
6	0.05	112.43	11.6977	64.3913	89.9776	-5.2316	61.351	68.2086	-18.4676	47.9973	51.4176	-29.7054	44.439	125.419	3.22901	-16.9395	122.578	0.968999	-44.3618	130.253	-2.04803	-68.9591	153.721	8.42068	-24.8477	157.179	3.36328	-53.432	162.113	-2.78806	-82.3562	181.308	5.1931	-17.7528	186.766	2.31384	-43.3361	190.298	-4.38687	-66.9171	204.007	-6.7087	7.04869	220.531	-11.1272	-6.86018	235.143	-5.56396	-26.1344	175.238	22.3727	33.5764	176.256	35.7004	62.3715	142.583	28.9609	42.8868	
7	0.0583333	111.98	13.3592	68.247	90.8723	-5.93741	60.6153	70.5943	-19.0527	48.2009	51.4739	-30.1451	42.3741	123.521	5.01463	-17.4577	125.649	0.888716	-46.437	127.496	-1.25806	-71.9993	156.322	8.07818	-26.6753	157.804	3.27529	-55.2352	165.546	-2.81903	-86.4342	182.248	4.67694	-18.5468	188.016	2.16827	-44.8037	187.38	-3.96501	-67.5071	204.056	-5.41133	8.18036	216.295	-9.76281	-5.93995	233.954	-3.74647	-23.616	174.863	22.6883	29.0371	177.334	37.5387	63.7774	140.68	31.3272	45.4543	
8	0.0666667	113.922	11.6244	63.1099	91.3551	-6.58946	60.9144	73.801	-19.7043	48.607	53.8826	-31.3742	44.0085	125.586	5.14125	-18.8058	124.093	2.94259	-44.9617	128.553	-0.965655	-67.5887	156.97	9.76731	-25.4384	158.935	3.71157	-57.5533	162.177	-2.31872	-80.8833	178.401	6.44247	-15.2255	183.972	2.76561	-42.5227	188.81	-3.74518	-70.4798	206.019	-4.46287	6.99492	216.84	-9.09304	-9.16063	233.173	-4.66618	-21.6812	179.359	23.7909	30.7071	180.699	36.5276	61.1355	144.527	31.2724	46.5121	
9	0.075	111.941	13.6439	67.5917	91.2243	-8.71678	60.6351	73.0974	-21.2893	49.0524	53.6519	-33.85	42.2604	127.189	6.74785	-19.0256	121.985	3.16622	-41.8744	126.598	-1.69622	-70.9312	153.205	11.6814	-28.534	157.433	5.30868	-57.8475	159.965	-0.771544	-82.4005	178.844	7.84388	-15.8259	181.965	4.18548	-43.3973	185.696	-3.07578	-69.6238	207.736	-3.30158	7.15474	217.291	-6.83695	-8.92258	229.469	-1.03575	-26.8165	174.231	22.6505	33.8211	180.322	35.6584	60.4878	146.1	33.5611	46.809	
10	0.0833333	113.657	12.4075	63.5594	88.7942	-9.80334	58.6456	70.7231	-25.0976	48.575	55.382	-39.1145	40.554	124.318	8.22259	-16.0994	120.956	3.59854	-46.745	128.518	-0.654488	-69.2393	155.093	12.3638	-28.1847	158.913	7.9828	-54.9349	161.324	-0.865775	-83.5162	179.931	9.35823	-20.2368	182.625	6.26264	-45.2921	185.211	-1.84866	-70.4768	207.807	-2.77351	6.33152	216.548	-5.43711	-10.1162	231.704	1.16963	-29.8655	174.273	24.5026	34.8654	178.777	38.7062	63.7893	144.792	31.8791	47.6447	
11	0.0916667	113.141	12.4322	67.6182	95.3705	-10.9848	57.8408	72.5964	-28.6562	44.0833	55.3643	-42.9033	38.7857	122.482	8.75718	-19.3396	123.215	4.61208	-47.1033	125.811	-1.68378	-72.8123	152.204	14.0545	-25.8841	157.05	8.77317	-57.5989	157.677	-0.145075	-85.1769	178.89	11.0633	-20.5418	183.257	6.72724	-46.0679	183.638	-2.41088	-73.4138	204.982	-0.766031	0.0559058	219.154	-3.06287	-13.0236	232.463	2.17976	-28.57	176.476	24.8498	29.3292	178.379	37.7313	62.3633	140.723	31.7138	43.7456	
12	0.1	110.974	12.032	66.6849	95.1748	-12.3334	57.2812	77.5438	-28.5051	46.8173	60.609	-42.8779	39.7621	121.806	11.0334	-22.047	123.816	4.95601	-47.4025	123.264	-2.08669	-68.8777	152.277	15.3911	-31.3742	159.038	7.09068	-60.0473	160.844	-2.59084	-85.3125	177.629	11.411	-22.4895	184.494	6.23266	-49.9079	181.749	-1.71013	-73.7244	207.084	0.859543	1.05181	216.36	-1.91765	-13.4427	229.481	3.81877	-30.8658	174.878	28.0906	30.3341	178.553	37.0296	62.0364	141.619	35.5464	47.1427	
13	0.108333	115.314	11.3404	63.0776	95.4718	-13.6903	56.222	79.5766	-28.7056	42.6745	63.2569	-43.4702	38.5515	126.092	11.8625	-19.5907	125.621	5.98911	-47.6602	125.501	-3.10831	-74.6851	157.12	16.9159	-27.1904	158.231	9.0661	-56.7525	161.183	-3.96881	-87.7136	180.376	12.1063	-23.9389	178.124	6.90874	-48.5121	183	-1.83464	-70.5766	206.786	2.17659	4.20277	218.61	-1.31637	-14.1748	226.6	5.23875	-29.7616	175.191	28.571	33.7068	179.42	37.7325	61.1886	141.582	36.617	47.7885	
14	0.116667	114.166	10.7244	64.0394	94.2698	-13.3481	58.3503	79.8175	-28.4076	41.7102	61.6482	-44.7169	30.944	123.183	14.92	-22.9419	125.441	6.67534	-49.783	124.569	-2.38111	-71.8826	151.795	17.8759	-29.2304	157.171	10.0795	-56.2056	157.753	-4.3054	-86.4051	180.114	13.6222	-22.8474	180.144	7.53311	-52.4711	179.955	-3.01753	-75.8378	205.036	3.31229	2.36254	218.195	1.29231	-10.4677	230.045	8.62869	-31.6765	178.68	29.0241	32.5597	178.185	38.8099	64.0075	142.782	34.7728	45.545	
15	0.125	112.839	11.4512	64.5515	96.76	-13.2328	55.8367	79.7931	-27.6505	41.219	65.8483	-42.6649	31.0388	122.055	17.913	-21.332	121.825	9.27847	-49.4028	122.836	-0.594198	-71.9358	151.771	19.9602	-31.1937	150.642	10.3455	-60.1598	152.725	-3.13429	-84.68	173.871	16.1411	-24.4913	180.918	10.2969	-48.9763	179.548	-2.31047	-74.7524	205.456	5.80454	0.747503	216.755	2.86631	-13.0575	227.975	10.405	-32.2192	179.921	32.0972	33.8115	182.407	39.6852	62.3763	143.785	36.2405	50.3291	
16	0.133333	116.807	11.698	65.1008	95.3595	-12.8752	54.6193	81.3243	-27.4613	35.1966	65.6951	-43.0648	26.6865	121.972	20.6104	-22.0174	120.394	12.8029	-48.1036	126.566	-0.258036	-73.946	149.88	23.8607	-28.0774	149.663	13.0739	-57.5166	155.651	-3.62237	-83.1548	173.437	18.4468	-20.509	175.91	9.62316	-52.3606	174.808	-3.1614	-76.077	204.337	8.28547	2.18573	215.479	4.56678	-17.9992	227.485	12.2837	-35.5449	177.703	33.9724	34.8119	182.55	40.6083	66.5657	144.975	37.1893	52.0147	
17	0.141667	112.732	12.5563	63.8953	97.3039	-13.3892	49.8726	80.2507	-27.5716	38.0254	67.0059	-41.5851	27.7687	123.795	23.1428	-22.5276	123.102	14.9172	-49.033	125.556	0.668299	-71.2401	151.698	24.5102	-31.1628	150.696	12.6568	-60.7726	149.424	-4.55904	-84.8067	171.198	19.9046	-24.4575	176.161	8.64321	-54.531	171.347	-4.28057	-73.5715	203.049	10.0079	-3.24294	215.358	6.58491	-18.601	228.688	14.4395	-31.2478	178.221	35.3666	34.3764	181.667	41.0386	68.6863	141.257	38.5227	52.3775	
18	0.15	111.079	13.3555	68.2843	95.902	-12.4946	50.1365	80.196	-27.6223	37.8792	65.5932	-42.4081	25.4764	119.824	25.2617	-19.4613	121.468	17.5306	-46.5273	125.782	0.0246977	-73.2157	147.827	27.3365	-31.8216	150.665	15.6663	-56.9313	152.306	-7.20142	-83.8188	175.686	21.3101	-21.4392	173.741	11.9782	-50.4655	170.436	-6.67223	-73.4289	201.747	11.4358	0.232445	214.146	8.17827	-19.4558	226.072	13.4281	-31.2052	173.632	36.0308	33.4205	178.054	38.7075	67.2356	143.798	40.4375	51.7519	
19	0.158333	111.153	13.1105	64.839	98.6365	-11.9844	47.4108	84.6973	-26.4876	34.7045	68.6599	-42.7294	21.9015	120.813	26.3418	-16.9549	119.972	18.3449	-47.1835	120.392	1.34695	-68.9891	152.432	28.0747	-31.1184	149.536	14.3212	-58.8639	148.406	-9.95188	-82.4751	173.951	21.6024	-25.7358	170.566	10.7488	-52.4337	168.961	-10.9949	-73.5755	199.751	12.0969	0.258295	212.734	9.06277	-16.3671	224.531	17.871	-36.6826	173.362	36.9087	32.1402	179.953	40.399	65.0129	144.824	41.026	54.2677	
20	0.166667	114.818	13.3105	62.246	100.285	-11.3844	50.045	82.0245	-27.7839	33.347	74.938	-41.7823	16.3587	125.374	28.3489	-19.4044	119.449	19.1457	-47.3619	121.054	-1.58325	-67.8951	148.811	30.719	-27.0949	149.134	16.5163	-56.9464	143.825	-13.9418	-79.7011	173.037	22.9672	-25.0354	170.786	8.49775	-53.1483	172.172	-12.5639	-68.3953	204.856	12.3193	0.0713377	213.775	9.17961	-14.3671	227.049	16.0034	-33.4159	179.981	37.7605	37.1852	182.965	41.4542	68.6008	140.641	41.6015	50.0848	
21	0.175	113.56	14.1496	61.8312	102.252	-12.4216	43.8188	84.2136	-27.5417	28.6318	76.7675	-42.8335	15.2461	124.655	29.9683	-22.5688	121.569	20.7451	-46.6254	121.957	-8.27157	-67.6094	151.017	30.8843	-29.7075	145.085	12.7865	-58.8949	144.399	-18.0962	-73.977	176.586	22.6256	-25.9883	173.708	8.18857	-49.6876	170.831	-17.337	-65.1529	205.391	12.6036	-2.7856	212.552	9.68286	-18.3003	224.88	16.1462	-36.2841	175.778	38.4427	38.3193	182.247	39.5961	69.2493	146.76	43.1271	53.6986	
